<svg width="100" height="124" viewBox="0 0 100 124" fill="none" xmlns="http://www.w3.org/2000/svg">
<path d="M50 24L61.2257 58.5491H97.5528L68.1636 79.9017L79.3893 114.451L50 93.0983L20.6107 114.451L31.8364 79.9017L2.44717 58.5491H38.7743L50 24Z" fill="#100101"/>
<path d="M70.2273 56C69.2898 53.1307 68.054 50.5597 66.5199 48.2869C65.0142 45.9858 63.2102 44.0256 61.108 42.4062C59.0341 40.7869 56.6761 39.5511 54.0341 38.6989C51.392 37.8466 48.4943 37.4205 45.3409 37.4205C40.1705 37.4205 35.4688 38.7557 31.2358 41.4261C27.0028 44.0966 23.6364 48.0312 21.1364 53.2301C18.6364 58.429 17.3864 64.8068 17.3864 72.3636C17.3864 79.9205 18.6506 86.2983 21.179 91.4972C23.7074 96.696 27.1307 100.631 31.4489 103.301C35.767 105.972 40.625 107.307 46.0227 107.307C51.0227 107.307 55.4261 106.241 59.233 104.111C63.0682 101.952 66.0511 98.9119 68.1818 94.9915C70.3409 91.0426 71.4205 86.3977 71.4205 81.0568L74.6591 81.7386H48.4091V72.3636H81.6477V81.7386C81.6477 88.9261 80.1136 95.1761 77.0455 100.489C74.0057 105.801 69.8011 109.92 64.4318 112.847C59.0909 115.744 52.9545 117.193 46.0227 117.193C38.2955 117.193 31.5057 115.375 25.6534 111.739C19.8295 108.102 15.2841 102.932 12.017 96.2273C8.77841 89.5227 7.15909 81.5682 7.15909 72.3636C7.15909 65.4602 8.08239 59.2528 9.92898 53.7415C11.804 48.2017 14.446 43.4858 17.8551 39.5938C21.2642 35.7017 25.2983 32.7188 29.9574 30.6449C34.6165 28.571 39.7443 27.5341 45.3409 27.5341C49.9432 27.5341 54.233 28.2301 58.2102 29.6222C62.2159 30.9858 65.7812 32.9318 68.9062 35.4602C72.0597 37.9602 74.6875 40.9574 76.7898 44.4517C78.892 47.9176 80.3409 51.767 81.1364 56H70.2273Z" fill="url(#paint0_linear_26_13)"/>
<defs>
<linearGradient id="paint0_linear_26_13" x1="50" y1="0" x2="50" y2="100" gradientUnits="userSpaceOnUse">
<stop stop-color="#04460A"/>
<stop offset="0.229167" stop-color="#137617" stop-opacity="0.99"/>
<stop offset="0.291667" stop-color="#288D04" stop-opacity="0.92"/>
<stop offset="0.390625" stop-color="#C9C10D" stop-opacity="0.83"/>
<stop offset="0.489583" stop-color="#E6C518" stop-opacity="0.96"/>
<stop offset="0.619792" stop-color="#CFAC10" stop-opacity="0.98"/>
<stop offset="0.71875" stop-color="#EB2C12" stop-opacity="0.7"/>
<stop offset="0.84375" stop-color="#AC1805" stop-opacity="0.86"/>
<stop offset="1" stop-color="#8F0707"/>
</linearGradient>
</defs>
</svg>
