<svg width="96" height="94" viewBox="0 0 96 94" fill="none" xmlns="http://www.w3.org/2000/svg">
<rect width="96" height="94" fill="#1E1E1E"/>
<path d="M48 0L59.2257 34.5491H95.5528L66.1636 55.9017L77.3893 90.4509L48 69.0983L18.6107 90.4509L29.8364 55.9017L0.447174 34.5491H36.7743L48 0Z" fill="#100101"/>
<path d="M68.2273 32C67.2898 29.1307 66.054 26.5597 64.5199 24.2869C63.0142 21.9858 61.2102 20.0256 59.108 18.4062C57.0341 16.7869 54.6761 15.5511 52.0341 14.6989C49.392 13.8466 46.4943 13.4205 43.3409 13.4205C38.1705 13.4205 33.4688 14.7557 29.2358 17.4261C25.0028 20.0966 21.6364 24.0312 19.1364 29.2301C16.6364 34.429 15.3864 40.8068 15.3864 48.3636C15.3864 55.9205 16.6506 62.2983 19.179 67.4972C21.7074 72.696 25.1307 76.6307 29.4489 79.3011C33.767 81.9716 38.625 83.3068 44.0227 83.3068C49.0227 83.3068 53.4261 82.2415 57.233 80.1108C61.0682 77.9517 64.0511 74.9119 66.1818 70.9915C68.3409 67.0426 69.4205 62.3977 69.4205 57.0568L72.6591 57.7386H46.4091V48.3636H79.6477V57.7386C79.6477 64.9261 78.1136 71.1761 75.0455 76.4886C72.0057 81.8011 67.8011 85.9205 62.4318 88.8466C57.0909 91.7443 50.9545 93.1932 44.0227 93.1932C36.2955 93.1932 29.5057 91.375 23.6534 87.7386C17.8295 84.1023 13.2841 78.9318 10.017 72.2273C6.77841 65.5227 5.15909 57.5682 5.15909 48.3636C5.15909 41.4602 6.08239 35.2528 7.92898 29.7415C9.80398 24.2017 12.446 19.4858 15.8551 15.5938C19.2642 11.7017 23.2983 8.71875 27.9574 6.64489C32.6165 4.57102 37.7443 3.53409 43.3409 3.53409C47.9432 3.53409 52.233 4.23011 56.2102 5.62216C60.2159 6.98579 63.7812 8.93181 66.9062 11.4602C70.0597 13.9602 72.6875 16.9574 74.7898 20.4517C76.892 23.9176 78.3409 27.767 79.1364 32H68.2273Z" fill="url(#paint0_linear_26_2)"/>
<defs>
<linearGradient id="paint0_linear_26_2" x1="48" y1="-24" x2="48" y2="76" gradientUnits="userSpaceOnUse">
<stop stop-color="#04460A"/>
<stop offset="0.229167" stop-color="#137617" stop-opacity="0.99"/>
<stop offset="0.291667" stop-color="#288D04" stop-opacity="0.92"/>
<stop offset="0.390625" stop-color="#C9C10D" stop-opacity="0.83"/>
<stop offset="0.489583" stop-color="#E6C518" stop-opacity="0.96"/>
<stop offset="0.619792" stop-color="#CFAC10" stop-opacity="0.98"/>
<stop offset="0.71875" stop-color="#EB2C12" stop-opacity="0.7"/>
<stop offset="0.84375" stop-color="#AC1805" stop-opacity="0.86"/>
<stop offset="1" stop-color="#8F0707"/>
</linearGradient>
</defs>
</svg>
